# Blender v3.0.0 OBJ File: 'Glass Wares - Inner Frames.blend'
# www.blender.org
mtllib Burette.mtl
o Burette
v 5.531611 -0.210247 -0.054530
v 5.484386 -0.210247 -0.027265
v 5.484386 -0.210247 0.027265
v 5.531611 -0.210247 0.054530
v 5.578835 -0.210247 0.027265
v 5.578835 -0.210247 -0.027265
v 5.531611 -2.387554 -0.054920
v 5.484049 -2.387554 -0.027460
v 5.484049 -2.387554 0.027460
v 5.531611 -2.387554 0.054920
v 5.579173 -2.387554 0.027460
v 5.579173 -2.387554 -0.027460
v 5.531611 -2.421938 -0.028634
v 5.506814 -2.421938 -0.014317
v 5.506814 -2.421938 0.014317
v 5.531611 -2.421938 0.028634
v 5.556408 -2.421938 0.014317
v 5.556408 -2.421938 -0.014317
v 5.531611 -2.576962 -0.027999
v 5.507363 -2.576962 -0.013999
v 5.507363 -2.576962 0.013999
v 5.531611 -2.576962 0.027999
v 5.555858 -2.576962 0.013999
v 5.555858 -2.576962 -0.013999
v 5.531611 -2.777274 -0.027999
v 5.507363 -2.777274 -0.013999
v 5.507363 -2.777274 0.013999
v 5.531611 -2.777274 0.027999
v 5.555858 -2.777274 0.013999
v 5.555858 -2.777274 -0.013999
v 5.531611 -2.879431 -0.028007
v 5.507356 -2.879431 -0.014004
v 5.507356 -2.879431 0.014004
v 5.531611 -2.879431 0.028007
v 5.555866 -2.879431 0.014004
v 5.555866 -2.879431 -0.014004
v 5.531611 -3.006411 -0.009484
v 5.523397 -3.006411 -0.004742
v 5.523397 -3.006411 0.004742
v 5.531611 -3.006411 0.009484
v 5.539824 -3.006411 0.004742
v 5.539824 -3.006411 -0.004742
vn -0.8660 -0.0002 0.5000
vn -0.8280 0.2931 0.4780
vn -0.8280 0.2931 -0.4780
vn -0.8660 -0.0002 -0.5000
vn 0.0000 -0.0002 -1.0000
vn 0.0000 0.2931 -0.9561
vn 0.8280 0.2931 -0.4780
vn 0.8660 -0.0002 -0.5000
vn 0.8660 -0.0002 0.5000
vn 0.8280 0.2931 0.4780
vn 0.0000 0.2931 0.9561
vn 0.0000 -0.0002 1.0000
vn -0.8084 0.3585 0.4668
vn -0.8084 0.3585 -0.4668
vn 0.0000 0.3585 -0.9335
vn 0.8084 0.3585 -0.4668
vn 0.8084 0.3585 0.4668
vn 0.0000 0.3585 0.9335
vn -0.8660 0.0041 -0.5000
vn 0.0000 0.0041 -1.0000
vn 0.8660 0.0041 -0.5000
vn 0.8660 0.0041 0.5000
vn -0.8660 0.0041 0.5000
vn 0.0000 0.0041 1.0000
vn 0.8660 -0.0001 -0.5000
vn 0.8638 0.0707 -0.4987
vn 0.8638 0.0707 0.4987
vn 0.8660 -0.0001 0.5000
vn -0.8660 -0.0001 0.5000
vn -0.8639 0.0707 0.4987
vn -0.8639 0.0707 -0.4987
vn -0.8660 -0.0001 -0.5000
vn 0.0000 -0.0001 -1.0000
vn 0.0000 0.0707 -0.9975
vn 0.0000 0.0707 0.9975
vn 0.0000 -0.0001 1.0000
vn -0.8569 0.1443 0.4947
vn -0.8569 0.1443 -0.4947
vn 0.0000 0.1443 -0.9895
vn 0.8569 0.1443 -0.4948
vn 0.8569 0.1443 0.4948
vn 0.0000 0.1443 0.9895
usemtl Liquid
s 1
f 6//1 12//2 11//3 5//4
f 4//5 10//6 9//7 3//8
f 2//9 8//10 7//11 1//12
f 1//12 7//11 12//2 6//1
f 5//4 11//3 10//6 4//5
f 3//8 9//7 8//10 2//9
f 12//2 18//13 17//14 11//3
f 10//6 16//15 15//16 9//7
f 8//10 14//17 13//18 7//11
f 7//11 13//18 18//13 12//2
f 11//3 17//14 16//15 10//6
f 9//7 15//16 14//17 8//10
f 17//14 23//19 22//20 16//15
f 15//16 21//21 20//22 14//17
f 18//13 24//23 23//19 17//14
f 16//15 22//20 21//21 15//16
f 14//17 20//22 19//24 13//18
f 13//18 19//24 24//23 18//13
f 27//25 33//26 32//27 26//28
f 30//29 36//30 35//31 29//32
f 28//33 34//34 33//26 27//25
f 26//28 32//27 31//35 25//36
f 25//36 31//35 36//30 30//29
f 29//32 35//31 34//34 28//33
f 36//30 42//37 41//38 35//31
f 34//34 40//39 39//40 33//26
f 32//27 38//41 37//42 31//35
f 31//35 37//42 42//37 36//30
f 35//31 41//38 40//39 34//34
f 33//26 39//40 38//41 32//27
