# Blender v3.0.0 OBJ File: 'Glass Wares - Inner Frames.blend'
# www.blender.org
mtllib Graduated Cylinder.mtl
o Graduated_Cilinder
v 2.326671 3.098313 -0.000318
v 2.283581 3.098313 -0.132934
v 2.170771 3.098313 -0.214896
v 2.031329 3.098313 -0.214896
v 1.918519 3.098313 -0.132934
v 1.820349 3.098313 -0.000318
v 1.918519 3.098313 0.132299
v 2.031329 3.098313 0.214260
v 2.170771 3.098313 0.214260
v 2.283581 3.098313 0.132299
v 2.326671 2.954781 -0.000318
v 2.283581 2.954781 -0.132934
v 2.170771 2.954781 -0.214896
v 2.031329 2.954781 -0.214896
v 1.918519 2.954781 -0.132934
v 1.882664 2.954781 -0.000318
v 1.918519 2.954781 0.132299
v 2.031329 2.954781 0.214260
v 2.170771 2.954781 0.214260
v 2.283581 2.954781 0.132299
v 2.326671 0.546435 -0.000317
v 2.283581 0.546435 -0.132934
v 2.170771 0.546435 -0.214895
v 2.031329 0.546435 -0.214895
v 1.918519 0.546435 -0.132934
v 1.878160 0.546435 -0.000317
v 1.918519 0.546435 0.132299
v 2.031329 0.546435 0.214261
v 2.170771 0.546435 0.214261
v 2.283581 0.546435 0.132299
vn 0.9772 0.2121 0.0000
vn 0.7564 0.0983 -0.6467
vn 0.7892 0.0496 -0.6121
vn 0.9944 0.1059 -0.0000
vn -0.3090 0.0000 0.9511
vn 0.3090 0.0000 0.9511
vn -0.8090 -0.0000 -0.5878
vn -1.0000 0.0000 0.0000
vn 0.3090 -0.0000 -0.9511
vn 0.7564 0.0983 0.6467
vn 0.7892 0.0496 0.6121
vn -0.8090 0.0000 0.5878
vn -0.3090 -0.0000 -0.9511
vn 0.2365 0.6437 0.7278
vn -0.2365 0.6437 0.7278
vn -0.7653 0.6437 -0.0000
vn -0.6191 0.6437 -0.4498
vn 0.2365 0.6437 -0.7278
vn 0.6273 0.6428 -0.4395
vn 0.6273 0.6428 0.4395
vn -0.6191 0.6437 0.4498
vn -0.2365 0.6437 -0.7278
vn 0.7641 0.6450 0.0000
usemtl Liquid
s 1
f 6//1 7//2 17//3 16//4
f 3//5 4//6 14//6 13//5
f 10//7 1//8 11//8 20//7
f 7//2 8//9 18//9 17//3
f 4//6 5//10 15//11 14//6
f 1//8 2//12 12//12 11//8
f 8//9 9//13 19//13 18//9
f 5//10 6//1 16//4 15//11
f 2//12 3//5 13//5 12//12
f 9//13 10//7 20//7 19//13
f 13//5 14//6 24//14 23//15
f 20//7 11//8 21//16 30//17
f 17//3 18//9 28//18 27//19
f 14//6 15//11 25//20 24//14
f 11//8 12//12 22//21 21//16
f 18//9 19//13 29//22 28//18
f 15//11 16//4 26//23 25//20
f 12//12 13//5 23//15 22//21
f 19//13 20//7 30//17 29//22
f 16//4 17//3 27//19 26//23
f 22//21 23//15 24//14 25//20 26//23 27//19 28//18 29//22 30//17 21//16
