# Blender v3.0.0 OBJ File: 'Glass Wares - Inner Frames.blend'
# www.blender.org
mtllib Test Tube.mtl
o Test_Tube
v -5.493876 3.877840 -0.049269
v -5.532397 3.877840 -0.030719
v -5.541911 3.877840 0.010964
v -5.515254 3.877840 0.044391
v -5.472498 3.877840 0.044391
v -5.445841 3.877840 0.010964
v -5.455355 3.877840 -0.030719
v -5.493876 3.865678 -0.049592
v -5.532649 3.865678 -0.030920
v -5.542225 3.865678 0.011036
v -5.515394 3.865678 0.044682
v -5.472358 3.865678 0.044682
v -5.445527 3.865678 0.011036
v -5.455103 3.865678 -0.030920
v -5.493876 3.851660 -0.049514
v -5.532588 3.851660 -0.030871
v -5.542149 3.851660 0.011019
v -5.515360 3.851660 0.044612
v -5.472392 3.851660 0.044612
v -5.445603 3.851660 0.011019
v -5.455164 3.851660 -0.030871
v -5.493876 3.276933 -0.048958
v -5.532153 3.276933 -0.030525
v -5.541607 3.276933 0.010895
v -5.515118 3.276933 0.044110
v -5.472634 3.276933 0.044110
v -5.446145 3.276933 0.010895
v -5.455599 3.276933 -0.030525
v -5.493876 3.254191 -0.043033
v -5.527521 3.254191 -0.026831
v -5.535831 3.254191 0.009577
v -5.512548 3.254191 0.038773
v -5.475204 3.254191 0.038773
v -5.451921 3.254191 0.009577
v -5.460231 3.254191 -0.026831
v -5.493876 3.237722 -0.025462
v -5.513783 3.237722 -0.015875
v -5.518700 3.237722 0.005666
v -5.504924 3.237722 0.022941
v -5.482828 3.237722 0.022941
v -5.469052 3.237722 0.005666
v -5.473969 3.237722 -0.015875
v -5.493876 3.228942 0.000000
vn -0.7815 -0.0265 0.6232
vn -0.7818 -0.0104 0.6234
vn -0.9749 -0.0104 -0.2225
vn -0.9746 -0.0265 -0.2224
vn -0.4337 -0.0265 -0.9006
vn -0.4339 -0.0104 -0.9009
vn 0.4339 -0.0104 -0.9009
vn 0.4337 -0.0265 -0.9006
vn 0.9746 -0.0265 -0.2224
vn 0.9749 -0.0104 -0.2225
vn 0.7818 -0.0104 0.6234
vn 0.7815 -0.0265 0.6232
vn 0.0000 -0.0265 0.9996
vn 0.0000 -0.0104 0.9999
vn 0.7818 0.0033 0.6235
vn 0.0000 0.0033 1.0000
vn -0.7818 0.0033 0.6235
vn -0.9749 0.0033 -0.2225
vn -0.4339 0.0033 -0.9009
vn 0.4339 0.0033 -0.9009
vn 0.9749 0.0033 -0.2225
vn 0.0000 0.1233 0.9923
vn -0.7758 0.1233 0.6187
vn -0.9675 0.1233 -0.2208
vn -0.4306 0.1233 -0.8941
vn 0.4306 0.1233 -0.8941
vn 0.9675 0.1233 -0.2208
vn 0.7758 0.1233 0.6187
vn -0.6860 0.4797 0.5470
vn -0.8554 0.4797 -0.1952
vn -0.3807 0.4797 -0.7905
vn 0.3807 0.4797 -0.7905
vn 0.8554 0.4797 -0.1952
vn 0.6860 0.4797 0.5470
vn 0.0000 0.4797 0.8774
vn 0.2417 0.8304 -0.5019
vn 0.5431 0.8304 -0.1239
vn 0.4355 0.8304 0.3473
vn 0.0000 0.8304 0.5571
vn -0.4355 0.8304 0.3473
vn -0.5431 0.8304 -0.1239
vn -0.2417 0.8304 -0.5019
vn 0.0000 1.0000 0.0000
usemtl Liquid
s 1
f 7//1 14//2 13//3 6//4
f 5//5 12//6 11//7 4//8
f 3//9 10//10 9//11 2//12
f 1//13 8//14 14//2 7//1
f 6//4 13//3 12//6 5//5
f 4//8 11//7 10//10 3//9
f 2//12 9//11 8//14 1//13
f 9//11 16//15 15//16 8//14
f 14//2 21//17 20//18 13//3
f 12//6 19//19 18//20 11//7
f 10//10 17//21 16//15 9//11
f 8//14 15//16 21//17 14//2
f 13//3 20//18 19//19 12//6
f 11//7 18//20 17//21 10//10
f 15//16 22//22 28//23 21//17
f 20//18 27//24 26//25 19//19
f 18//20 25//26 24//27 17//21
f 16//15 23//28 22//22 15//16
f 21//17 28//23 27//24 20//18
f 19//19 26//25 25//26 18//20
f 17//21 24//27 23//28 16//15
f 28//23 35//29 34//30 27//24
f 26//25 33//31 32//32 25//26
f 24//27 31//33 30//34 23//28
f 22//22 29//35 35//29 28//23
f 27//24 34//30 33//31 26//25
f 25//26 32//32 31//33 24//27
f 23//28 30//34 29//35 22//22
f 32//32 39//36 38//37 31//33
f 30//34 37//38 36//39 29//35
f 35//29 42//40 41//41 34//30
f 33//31 40//42 39//36 32//32
f 31//33 38//37 37//38 30//34
f 29//35 36//39 42//40 35//29
f 34//30 41//41 40//42 33//31
f 36//39 43//43 42//40
f 41//41 43//43 40//42
f 39//36 43//43 38//37
f 37//38 43//43 36//39
f 42//40 43//43 41//41
f 40//42 43//43 39//36
f 38//37 43//43 37//38
